<svg width="215" height="121" viewBox="0 0 215 121" overflow="hidden" fill="none" xmlns="http://www.w3.org/2000/svg">
<path d="M272.39 24.0073L277.092 43.2773L282.058 24.0073H288.474L280.103 54H273.928L269.16 34.3564L264.458 54H258.262L250.066 24.0073H256.592L261.426 42.9478L266.282 24.0073H272.39ZM312.292 44.9473H296.011C296.208 46.0898 296.604 47.0127 297.241 47.7378C298.318 48.9902 299.724 49.6274 301.46 49.6274C302.668 49.6274 303.767 49.2759 304.778 48.5947C305.415 48.1772 305.898 47.606 306.272 46.9248L311.501 48.375C310.688 50.001 309.634 51.3193 308.359 52.3081C306.294 53.9121 303.965 54.7251 301.394 54.7251C297.944 54.7251 295.088 53.5386 292.869 51.1875C291.001 49.21 290.056 46.6611 290.056 43.563C290.056 41.5635 290.496 39.7178 291.353 38.0259C292.253 36.2461 293.55 34.8838 295.242 33.917C296.934 32.9502 298.867 32.4668 301.042 32.4668C304.734 32.4668 307.656 33.7632 309.81 36.3779C311.479 38.3994 312.314 40.8823 312.314 43.8267C312.314 44.0903 312.314 44.4639 312.292 44.9473ZM295.989 41.6733H306.426C306.228 40.5747 305.833 39.6958 305.239 39.0366C304.207 37.8721 302.822 37.3008 301.108 37.3008C299.46 37.3008 298.142 37.8721 297.153 39.0366C296.604 39.6958 296.208 40.5747 295.989 41.6733ZM317.808 23.4141L322.686 24.7324L319.126 34.0928L315.281 33.082L317.808 23.4141ZM327.058 54V33.1919H332.793V36.2241C333.276 34.9058 333.892 33.9829 334.617 33.4775C335.54 32.7964 336.66 32.4668 337.957 32.4668C338.11 32.4668 338.33 32.4668 338.66 32.4888V38.3335C338.154 38.2896 337.759 38.2676 337.473 38.2676C335.781 38.2676 334.507 38.9048 333.628 40.1572C333.232 40.7505 332.991 41.3657 332.903 42.0249C332.837 42.5742 332.793 43.2334 332.793 43.9585V54H327.058ZM362.917 44.9473H346.636C346.833 46.0898 347.229 47.0127 347.866 47.7378C348.943 48.9902 350.349 49.6274 352.085 49.6274C353.293 49.6274 354.392 49.2759 355.403 48.5947C356.04 48.1772 356.523 47.606 356.897 46.9248L362.126 48.375C361.313 50.001 360.259 51.3193 358.984 52.3081C356.919 53.9121 354.59 54.7251 352.019 54.7251C348.569 54.7251 345.713 53.5386 343.494 51.1875C341.626 49.21 340.681 46.6611 340.681 43.563C340.681 41.5635 341.121 39.7178 341.978 38.0259C342.878 36.2461 344.175 34.8838 345.867 33.917C347.559 32.9502 349.492 32.4668 351.667 32.4668C355.359 32.4668 358.281 33.7632 360.435 36.3779C362.104 38.3994 362.939 40.8823 362.939 43.8267C362.939 44.0903 362.939 44.4639 362.917 44.9473ZM346.614 41.6733H357.051C356.853 40.5747 356.458 39.6958 355.864 39.0366C354.832 37.8721 353.447 37.3008 351.733 37.3008C350.085 37.3008 348.767 37.8721 347.778 39.0366C347.229 39.6958 346.833 40.5747 346.614 41.6733ZM386.274 51.3193V54H380.54V24.0073H386.274V35.7407C387.131 34.73 387.966 33.9829 388.801 33.5215C390.054 32.8184 391.46 32.4668 393.02 32.4668C396.162 32.4668 398.755 33.6094 400.798 35.8726C402.6 37.8721 403.501 40.4868 403.501 43.7168C403.501 47.2764 402.424 50.0669 400.271 52.0664C398.381 53.8462 396.052 54.7251 393.306 54.7251C391.658 54.7251 390.164 54.3735 388.867 53.6924C387.988 53.231 387.131 52.4399 386.274 51.3193ZM391.877 37.3008C390.12 37.3008 388.669 38.0698 387.549 39.5859C386.648 40.7944 386.208 42.1787 386.208 43.7607C386.208 45.7163 386.758 47.2764 387.878 48.4629C388.911 49.5615 390.208 50.1108 391.768 50.1108C393.547 50.1108 394.954 49.4736 396.008 48.1772C396.953 47.0127 397.415 45.5405 397.415 43.7607C397.415 42.0249 396.931 40.5527 395.986 39.3442C394.932 37.9819 393.569 37.3008 391.877 37.3008ZM407.786 54V33.1919H413.521V36.2241C414.004 34.9058 414.619 33.9829 415.344 33.4775C416.267 32.7964 417.388 32.4668 418.684 32.4668C418.838 32.4668 419.058 32.4668 419.387 32.4888V38.3335C418.882 38.2896 418.486 38.2676 418.201 38.2676C416.509 38.2676 415.234 38.9048 414.355 40.1572C413.96 40.7505 413.718 41.3657 413.63 42.0249C413.564 42.5742 413.521 43.2334 413.521 43.9585V54H407.786ZM422.771 33.1919H428.506V54H422.771V33.1919ZM425.671 24.0513C426.616 24.0513 427.385 24.3809 427.979 25.04C428.528 25.6553 428.813 26.4023 428.813 27.2812C428.813 28.2261 428.462 29.0391 427.737 29.6763C427.188 30.1597 426.484 30.4014 425.649 30.4014C424.661 30.4014 423.892 30.0718 423.298 29.4346C422.749 28.8193 422.463 28.0942 422.463 27.2373C422.463 26.2485 422.815 25.4136 423.54 24.7764C424.089 24.293 424.814 24.0513 425.671 24.0513ZM449.402 35.7627V33.1919H455.027V52.4839C455.027 55.3623 454.631 57.5596 453.818 59.0757C452.874 60.8335 451.423 62.1738 449.468 63.0967C447.732 63.9097 445.798 64.3052 443.623 64.3052C439.602 64.3052 436.174 62.9209 433.384 60.1743L436.921 56.5708C438.701 58.5044 440.854 59.4712 443.381 59.4712C445.337 59.4712 446.853 58.8999 447.908 57.7793C448.896 56.7026 449.402 55.2085 449.402 53.2969V51.1655C447.534 53.5386 445.073 54.7251 442.063 54.7251C440.283 54.7251 438.635 54.2637 437.097 53.3188C433.823 51.3413 432.197 48.1553 432.197 43.7388C432.197 41.6074 432.659 39.6079 433.582 37.7622C434.438 36.0264 435.669 34.708 437.273 33.8071C438.833 32.9062 440.613 32.4668 442.656 32.4668C444.128 32.4668 445.491 32.7744 446.699 33.4116C447.666 33.917 448.567 34.708 449.402 35.7627ZM443.865 37.5645C441.997 37.5645 440.525 38.2676 439.448 39.6958C438.679 40.7285 438.284 41.981 438.284 43.4971C438.284 45.4526 438.899 47.0127 440.129 48.1772C441.162 49.144 442.415 49.6274 443.887 49.6274C445.667 49.6274 447.095 48.9902 448.193 47.7158C448.918 46.8809 449.292 45.6504 449.292 44.0024C449.292 41.8271 448.787 40.2231 447.754 39.1904C446.677 38.1138 445.381 37.5645 443.865 37.5645ZM460.696 24.0073H466.431V35.4111C468.079 33.4556 469.946 32.4668 472.078 32.4668C473.33 32.4668 474.539 32.7744 475.703 33.4116C477.043 34.1367 477.966 35.1255 478.428 36.3779C478.779 37.2788 478.955 38.5752 478.955 40.2671V54H473.22V41.0801C473.22 39.7397 472.847 38.707 472.1 38.0259C471.594 37.5425 470.935 37.3008 470.122 37.3008C469.133 37.3008 468.298 37.6523 467.573 38.3335C467.068 38.8169 466.76 39.3223 466.606 39.8716C466.497 40.333 466.431 40.9043 466.431 41.6074V54H460.696V24.0073ZM493.127 37.894H490.513V47.8696C490.513 48.397 490.645 48.7485 490.886 48.9243C491.172 49.1221 491.589 49.21 492.139 49.21H493.127V54H488.557C487.217 54 486.228 53.6704 485.591 53.0112C485.042 52.4399 484.778 51.4512 484.778 50.0229V37.894H482.405V33.082H484.778V27.501H490.513V33.082H493.127V37.894ZM518.176 44.9473H501.895C502.092 46.0898 502.488 47.0127 503.125 47.7378C504.202 48.9902 505.608 49.6274 507.344 49.6274C508.552 49.6274 509.651 49.2759 510.662 48.5947C511.299 48.1772 511.782 47.606 512.156 46.9248L517.385 48.375C516.572 50.001 515.518 51.3193 514.243 52.3081C512.178 53.9121 509.849 54.7251 507.278 54.7251C503.828 54.7251 500.972 53.5386 498.752 51.1875C496.885 49.21 495.94 46.6611 495.94 43.563C495.94 41.5635 496.379 39.7178 497.236 38.0259C498.137 36.2461 499.434 34.8838 501.125 33.917C502.817 32.9502 504.751 32.4668 506.926 32.4668C510.618 32.4668 513.54 33.7632 515.693 36.3779C517.363 38.3994 518.198 40.8823 518.198 43.8267C518.198 44.0903 518.198 44.4639 518.176 44.9473ZM501.873 41.6733H512.31C512.112 40.5747 511.716 39.6958 511.123 39.0366C510.09 37.8721 508.706 37.3008 506.992 37.3008C505.344 37.3008 504.026 37.8721 503.037 39.0366C502.488 39.6958 502.092 40.5747 501.873 41.6733ZM522.307 54V33.1919H528.042V36.2241C528.525 34.9058 529.141 33.9829 529.866 33.4775C530.789 32.7964 531.909 32.4668 533.206 32.4668C533.359 32.4668 533.579 32.4668 533.909 32.4888V38.3335C533.403 38.2896 533.008 38.2676 532.722 38.2676C531.03 38.2676 529.756 38.9048 528.877 40.1572C528.481 40.7505 528.24 41.3657 528.152 42.0249C528.086 42.5742 528.042 43.2334 528.042 43.9585V54H522.307ZM261.448 85.894H258.833V95.8696C258.833 96.397 258.965 96.7485 259.207 96.9243C259.492 97.1221 259.91 97.21 260.459 97.21H261.448V102H256.877C255.537 102 254.548 101.67 253.911 101.011C253.362 100.44 253.098 99.4512 253.098 98.0229V85.894H250.725V81.082H253.098V75.501H258.833V81.082H261.448V85.894ZM275.642 80.4668C279.136 80.4668 281.992 81.6973 284.167 84.1582C285.991 86.2456 286.914 88.7725 286.914 91.7827C286.914 95.0127 285.706 97.7153 283.289 99.8467C281.135 101.758 278.542 102.725 275.532 102.725C273.159 102.725 271.05 102.132 269.182 100.967C267.446 99.8467 266.128 98.3745 265.271 96.5508C264.59 95.0786 264.26 93.4307 264.26 91.6289C264.26 88.0254 265.491 85.1909 267.93 83.1035C269.973 81.3457 272.544 80.4668 275.642 80.4668ZM275.62 85.5864C273.862 85.5864 272.456 86.2017 271.401 87.4102C270.479 88.4648 270.017 89.8491 270.017 91.585C270.017 93.4966 270.566 94.9688 271.643 96.0454C272.72 97.1001 274.038 97.6274 275.576 97.6274C277.356 97.6274 278.784 96.9683 279.883 95.6279C280.718 94.6392 281.135 93.3208 281.135 91.6948C281.135 89.6953 280.608 88.1792 279.531 87.1245C278.499 86.0918 277.202 85.5864 275.62 85.5864ZM306.404 83.7627V81.1919H312.029V100.484C312.029 103.362 311.633 105.56 310.82 107.076C309.875 108.833 308.425 110.174 306.47 111.097C304.734 111.91 302.8 112.305 300.625 112.305C296.604 112.305 293.176 110.921 290.386 108.174L293.923 104.571C295.703 106.504 297.856 107.471 300.383 107.471C302.339 107.471 303.855 106.9 304.91 105.779C305.898 104.703 306.404 103.208 306.404 101.297V99.1655C304.536 101.539 302.075 102.725 299.065 102.725C297.285 102.725 295.637 102.264 294.099 101.319C290.825 99.3413 289.199 96.1553 289.199 91.7388C289.199 89.6074 289.661 87.6079 290.583 85.7622C291.44 84.0264 292.671 82.708 294.275 81.8071C295.835 80.9062 297.615 80.4668 299.658 80.4668C301.13 80.4668 302.493 80.7744 303.701 81.4116C304.668 81.917 305.569 82.708 306.404 83.7627ZM300.867 85.5645C298.999 85.5645 297.527 86.2676 296.45 87.6958C295.681 88.7285 295.286 89.981 295.286 91.4971C295.286 93.4526 295.901 95.0127 297.131 96.1772C298.164 97.144 299.417 97.6274 300.889 97.6274C302.668 97.6274 304.097 96.9902 305.195 95.7158C305.92 94.8809 306.294 93.6504 306.294 92.0024C306.294 89.8271 305.789 88.2231 304.756 87.1904C303.679 86.1138 302.383 85.5645 300.867 85.5645ZM338.572 92.9473H322.29C322.488 94.0898 322.883 95.0127 323.521 95.7378C324.597 96.9902 326.003 97.6274 327.739 97.6274C328.948 97.6274 330.046 97.2759 331.057 96.5947C331.694 96.1772 332.178 95.606 332.551 94.9248L337.781 96.375C336.968 98.001 335.913 99.3193 334.639 100.308C332.573 101.912 330.244 102.725 327.673 102.725C324.224 102.725 321.367 101.539 319.148 99.1875C317.28 97.21 316.335 94.6611 316.335 91.563C316.335 89.5635 316.775 87.7178 317.632 86.0259C318.533 84.2461 319.829 82.8838 321.521 81.917C323.213 80.9502 325.146 80.4668 327.322 80.4668C331.013 80.4668 333.936 81.7632 336.089 84.3779C337.759 86.3994 338.594 88.8823 338.594 91.8267C338.594 92.0903 338.594 92.4639 338.572 92.9473ZM322.268 89.6733H332.705C332.507 88.5747 332.112 87.6958 331.519 87.0366C330.486 85.8721 329.102 85.3008 327.388 85.3008C325.74 85.3008 324.421 85.8721 323.433 87.0366C322.883 87.6958 322.488 88.5747 322.268 89.6733ZM351.316 85.894H348.701V95.8696C348.701 96.397 348.833 96.7485 349.075 96.9243C349.36 97.1221 349.778 97.21 350.327 97.21H351.316V102H346.746C345.405 102 344.417 101.67 343.779 101.011C343.23 100.44 342.966 99.4512 342.966 98.0229V85.894H340.593V81.082H342.966V75.501H348.701V81.082H351.316V85.894ZM355.491 72.0073H361.226V83.4111C362.874 81.4556 364.741 80.4668 366.873 80.4668C368.125 80.4668 369.333 80.7744 370.498 81.4116C371.838 82.1367 372.761 83.1255 373.223 84.3779C373.574 85.2788 373.75 86.5752 373.75 88.2671V102H368.015V89.0801C368.015 87.7397 367.642 86.707 366.895 86.0259C366.389 85.5425 365.73 85.3008 364.917 85.3008C363.928 85.3008 363.093 85.6523 362.368 86.3335C361.863 86.8169 361.555 87.3223 361.401 87.8716C361.292 88.333 361.226 88.9043 361.226 89.6074V102H355.491V72.0073ZM400.183 92.9473H383.901C384.099 94.0898 384.495 95.0127 385.132 95.7378C386.208 96.9902 387.615 97.6274 389.351 97.6274C390.559 97.6274 391.658 97.2759 392.668 96.5947C393.306 96.1772 393.789 95.606 394.163 94.9248L399.392 96.375C398.579 98.001 397.524 99.3193 396.25 100.308C394.185 101.912 391.855 102.725 389.285 102.725C385.835 102.725 382.979 101.539 380.759 99.1875C378.892 97.21 377.947 94.6611 377.947 91.563C377.947 89.5635 378.386 87.7178 379.243 86.0259C380.144 84.2461 381.44 82.8838 383.132 81.917C384.824 80.9502 386.758 80.4668 388.933 80.4668C392.625 80.4668 395.547 81.7632 397.7 84.3779C399.37 86.3994 400.205 88.8823 400.205 91.8267C400.205 92.0903 400.205 92.4639 400.183 92.9473ZM383.879 89.6733H394.316C394.119 88.5747 393.723 87.6958 393.13 87.0366C392.097 85.8721 390.713 85.3008 388.999 85.3008C387.351 85.3008 386.033 85.8721 385.044 87.0366C384.495 87.6958 384.099 88.5747 383.879 89.6733ZM404.314 102V81.1919H410.049V84.2241C410.532 82.9058 411.147 81.9829 411.873 81.4775C412.795 80.7964 413.916 80.4668 415.212 80.4668C415.366 80.4668 415.586 80.4668 415.916 80.4888V86.3335C415.41 86.2896 415.015 86.2676 414.729 86.2676C413.037 86.2676 411.763 86.9048 410.884 88.1572C410.488 88.7505 410.247 89.3657 410.159 90.0249C410.093 90.5742 410.049 91.2334 410.049 91.9585V102H404.314ZM422.354 95.9355C423.342 95.9355 424.133 96.2651 424.771 96.9463C425.364 97.5835 425.649 98.3745 425.649 99.3193C425.649 100.33 425.276 101.165 424.507 101.824C423.914 102.33 423.188 102.571 422.332 102.571C421.321 102.571 420.508 102.242 419.893 101.561C419.299 100.923 419.014 100.154 419.014 99.2534C419.014 98.1987 419.387 97.3418 420.156 96.6826C420.728 96.1772 421.453 95.9355 422.354 95.9355Z" fill="white"/>
<path d="M217 0V120.5" stroke="#0083FF" stroke-width="2"/>
<path d="M113.018 102.078H98.1505C98.1402 80.9236 98.1546 59.8824 98.1423 38.8433C97.7784 38.7857 97.4125 38.7282 97.0486 38.6726C94.5261 41.9969 92.0694 45.3746 89.4626 48.633C86.9546 51.7682 84.2245 54.7244 81.7102 57.8533C77.4876 63.1059 73.4129 68.4757 69.1698 73.7078C66.7398 76.7051 64.0117 79.462 61.5735 82.4532C58.2781 86.499 55.1491 90.6805 51.9092 94.7736C50.0548 97.1131 48.2498 99.5205 46.1488 101.622C45.4622 102.306 43.9039 102.121 42.2736 102.419C43.3694 100.731 44.0766 99.3745 45.0304 98.2212C49.5758 92.7404 54.2076 87.3316 58.7674 81.8631C60.9897 79.1988 63.2573 76.5571 65.2247 73.7098C66.0819 72.4702 66.6206 70.7494 66.6473 69.2364C66.785 61.3462 66.711 53.4519 66.711 45.5802C64.0775 44.3302 63.8514 47.0357 62.9838 47.9711C59.2628 51.9861 55.8111 56.2601 52.3964 60.5506C48.8892 64.9562 45.5608 69.5016 42.0948 73.9421C41.7412 74.3944 40.9784 74.528 40.483 74.7727C32.0418 64.4792 23.7055 54.3132 15.3713 44.1493C15.1143 44.2459 14.8594 44.3426 14.6045 44.4412V101.99H0V20.82C4.80443 20.82 9.52045 20.8056 14.2385 20.8488C14.6189 20.8529 15.0938 21.1839 15.359 21.5025C19.6885 26.6729 24.0345 31.833 28.2879 37.0671C31.8465 41.4439 35.2941 45.9132 38.7849 50.3476C40.1931 52.1382 41.3156 52.1341 42.7341 50.3969C48.0196 43.9335 53.3441 37.4988 58.6173 31.025C61.1912 27.8653 63.6725 24.6315 66.2464 21.4717C66.5322 21.1181 67.1407 20.8508 67.6032 20.8467C72.0047 20.7994 76.4062 20.8179 81.2127 20.8179V52.1834C82.5161 51.4598 83.4597 51.2213 83.951 50.6169C87.707 45.9893 91.3314 41.2527 95.0873 36.6251C98.5349 32.3757 102.161 28.2723 105.582 24.0044C107.77 21.2764 109.714 18.3571 111.811 15.5551C112.017 15.2796 112.514 15.222 113.018 15V102.078Z" fill="white"/>
<path d="M156.861 36.2399H129.724V22.0137H179.746C178.432 24.8856 177.148 27.8193 175.756 30.7015C174.062 34.2128 172.259 37.6728 170.54 41.1718C169.031 44.239 167.609 47.3495 166.079 50.4065C165.029 52.5054 165.384 53.5292 167.572 54.3988C174.5 57.1536 179.17 62.0321 182.071 68.9457C184.365 74.4101 184.583 79.8909 182.879 85.312C181.742 88.9262 179.551 92.2113 177.719 95.8666C174.718 92.3676 172.068 89.4113 169.582 86.3235C168.484 84.9584 167.999 83.3611 168.495 81.4471C170.084 75.3003 167.923 70.169 163.302 66.2794C160.685 64.0755 157.307 62.7742 153.658 63.2491C150.478 63.6623 149.522 61.0412 147.974 59.2588C146.226 57.2441 147.56 55.1718 148.352 53.3771C150.43 48.6734 152.79 44.0951 155.058 39.4757C155.527 38.5239 156.09 37.6173 156.861 36.2399Z" fill="white"/>
</svg>
